<?xml version="1.0" encoding="iso-8859-1"?>
<!-- Uploaded to: SVG Repo, www.svgrepo.com, Generator: SVG Repo Mixer Tools -->
<svg height="800px" width="800px" version="1.1" id="Layer_1" xmlns="http://www.w3.org/2000/svg" xmlns:xlink="http://www.w3.org/1999/xlink" 
	 viewBox="0 0 512 512" xml:space="preserve">
<g>
	<path style="fill:#F9DCA4;" d="M46.627,81.419l5.613,2.528c7.019,3.171,14.965,3.628,22.288,1.297l142.595-45.32
		c14.187-4.512,29.538-3.765,43.221,2.123l136.134,58.482c13.162,5.636,19.217,20.918,13.502,34.046
		c-0.028,0.062-0.055,0.124-0.083,0.187c-5.49,12.372-19.638,18.427-32.41,13.8l-104.142-37.68
		c-8.059-2.925-16.894-3.014-25.034-0.264L156.8,141.516c-9.939,3.365-15.625,13.789-13.05,23.955
		c1.588,6.23,5.904,11.01,11.328,13.417c4.383,1.945,9.486,2.35,14.435,0.714l79.851-26.38c10.701-3.53,22.331,1.744,26.728,12.123
		c2.449,5.757,2.193,11.95-0.151,17.234c-2.276,5.129-6.533,9.397-12.251,11.51l-125.904,46.775
		c-0.92,0.354-1.865,0.679-2.801,0.989c-23.146,7.68-48.619,3.499-68.784-10.25L0,186.484"/>
	<path style="fill:#F9DCA4;" d="M443.133,474.989l-3.668-3.708c-4.584-4.645-10.728-7.426-17.227-7.813l-126.547-7.599
		c-12.591-0.754-24.5-6.021-33.527-14.843l-89.821-87.703c-8.69-8.466-8.822-22.392-0.305-31.031
		c0.041-0.041,0.082-0.082,0.123-0.123c8.109-8.109,21.139-8.588,29.829-1.039l70.863,61.511c5.481,4.768,12.438,7.528,19.713,7.834
		l81.764,3.443c8.883,0.367,16.555-6.143,17.614-14.965c0.642-5.41-1.314-10.503-4.869-14.059
		c-2.873-2.873-6.784-4.748-11.195-4.962l-71.169-3.464c-9.535-0.469-17.125-8.18-17.441-17.726
		c-0.184-5.297,1.905-10.116,5.369-13.579c3.362-3.361,8.027-5.44,13.192-5.369l113.793,1.366c0.836,0,1.681,0.03,2.516,0.071
		c20.64,0.979,39.507,12.042,51.262,29.054l38.6,55.837"/>
</g>
<path style="fill:#EC589B;" d="M326.168,226.695c0-20.23,13.929-36.631,31.111-36.631c21.478,0,38.89,20.501,38.89,45.789
	c0,31.611-37.459,62.514-70.001,79.151c-32.542-16.637-70.001-47.54-70.001-79.151c0-25.288,17.412-45.789,38.89-45.789
	C312.239,190.065,326.168,206.465,326.168,226.695z"/>
</svg>