<?xml version="1.0" encoding="iso-8859-1"?>
<!-- Uploaded to: SVG Repo, www.svgrepo.com, Generator: SVG Repo Mixer Tools -->
<svg height="800px" width="800px" version="1.1" id="Layer_1" xmlns="http://www.w3.org/2000/svg" xmlns:xlink="http://www.w3.org/1999/xlink" 
	 viewBox="0 0 512 512" xml:space="preserve">
<path style="fill:#FFFFA6;" d="M87.786,144.696C119.873,85.087,183.16,44.522,256,44.522s136.127,40.565,168.214,100.174H87.786z"/>
<path style="fill:#FFE954;" d="M264.409,35.417v44.522c0,4.61-3.765,8.348-8.409,8.348s-8.409-3.738-8.409-8.348V35.417
	c0-4.61,3.765-8.348,8.409-8.348S264.409,30.807,264.409,35.417z M161.035,58.855c-3.283-3.26-8.608-3.26-11.892,0
	c-3.285,3.26-3.285,8.546,0,11.805l24.465,24.287c1.642,1.629,3.794,2.445,5.946,2.445c2.152,0,4.304-0.815,5.946-2.445
	c3.285-3.26,3.285-8.546,0-11.805L161.035,58.855z M362.857,58.855c-3.284-3.26-8.608-3.26-11.892,0L326.5,83.141
	c-3.285,3.26-3.285,8.546,0,11.805c1.642,1.629,3.794,2.445,5.946,2.445c2.153,0,4.304-0.815,5.946-2.445l24.465-24.287
	C366.141,67.401,366.141,62.115,362.857,58.855z"/>
<path style="fill:#99774F;" d="M509.899,28.797l-52.077,104.769v356.174c0,12.295-10.04,22.261-22.424,22.261H76.603
	c-12.385,0-22.424-9.966-22.424-22.261V133.565L2.102,28.797C-4.493,15.529,5.233,0,20.135,0l0,0
	c7.656,0,14.647,4.314,18.034,11.129l60.859,122.436h313.945l60.858-122.436C477.219,4.314,484.21,0,491.865,0
	C506.768,0,516.493,15.529,509.899,28.797z"/>
<path style="fill:#CEA05D;" d="M54.178,133.565v356.174c0,12.295,10.04,22.261,22.424,22.261h358.795
	c12.385,0,22.424-9.966,22.424-22.261V133.565H54.178z M334.486,211.478c0,12.295-10.04,22.261-22.424,22.261H199.938
	c-12.385,0-22.424-9.966-22.424-22.261l0,0c0-12.295,10.04-22.261,22.424-22.261h112.124
	C324.447,189.218,334.486,199.184,334.486,211.478L334.486,211.478z"/>
<path style="fill:#F4FFF9;" d="M235.459,367.305v77.913c0,6.147-4.983,11.13-11.13,11.13H44.768c-6.147,0-11.13-4.983-11.13-11.13
	v-77.913c0-6.147,4.983-11.13,11.13-11.13H224.33C230.476,356.174,235.459,361.157,235.459,367.305z"/>
<path style="fill:#93D6BB;" d="M187.807,389.565c0,4.61-3.765,8.348-8.409,8.348h-78.487c-4.645,0-8.409-3.738-8.409-8.348
	s3.765-8.348,8.409-8.348h78.486C184.042,381.218,187.807,384.955,187.807,389.565z M145.761,414.609h-44.85
	c-4.645,0-8.409,3.738-8.409,8.348s3.765,8.348,8.409,8.348h44.849c4.645,0,8.409-3.738,8.409-8.348
	S150.405,414.609,145.761,414.609z"/>
</svg>