<?xml version="1.0" encoding="iso-8859-1"?>
<!-- Uploaded to: SVG Repo, www.svgrepo.com, Generator: SVG Repo Mixer Tools -->
<svg height="800px" width="800px" version="1.1" id="Layer_1" xmlns="http://www.w3.org/2000/svg" xmlns:xlink="http://www.w3.org/1999/xlink" 
	 viewBox="0 0 512 512" xml:space="preserve">
<polygon style="fill:#A38251;" points="255.995,9.253 36.678,132.912 36.678,380.255 255.995,256.584 475.312,380.255 
	475.324,380.255 475.324,132.912 "/>
<polygon style="fill:#F2CA7F;" points="475.324,132.908 475.324,380.25 256.007,503.91 256.007,256.579 "/>
<polygon style="fill:#E0B76E;" points="319.077,163.381 99.759,39.713 36.683,132.912 256.001,256.58 "/>
<polygon style="fill:#F2CA7F;" points="374.568,134.974 155.25,11.306 256.001,9.244 475.319,132.912 "/>
<polygon style="fill:#E0B76E;" points="256.007,256.579 256.007,503.91 36.678,380.25 36.678,132.908 36.69,132.908 "/>
<path d="M475.323,216.443c4.788,0,8.668-3.881,8.668-8.668v-75.444c0-0.097-0.018-0.19-0.032-0.282
	c-0.099-2.967-1.698-5.751-4.382-7.264L260.259,1.116c-1.352-0.763-2.887-1.141-4.434-1.115L155.072,2.063
	c-3.906,0.08-7.275,2.763-8.229,6.551c-0.952,3.788,0.747,7.747,4.149,9.665l35.162,19.827l-35.288,19.897l-46.85-26.417
	c-3.932-2.217-8.906-1.046-11.436,2.692l-63.076,93.2c-0.948,1.401-1.446,3.034-1.477,4.693c-0.005,0.054-0.018,0.105-0.018,0.159
	v247.343c0,3.128,1.686,6.014,4.41,7.55l219.329,123.66c1.322,0.745,2.789,1.118,4.258,1.118s2.935-0.372,4.258-1.118
	l219.317-123.66c2.724-1.537,4.41-4.422,4.41-7.55V242.445c0-4.787-3.88-8.668-8.668-8.668c-4.788,0-8.668,3.881-8.668,8.668
	v132.163L264.674,488.494v-227.43l201.981-113.895v60.606C466.655,212.562,470.536,216.443,475.323,216.443z M327.515,160.817
	c-0.555-2.358-2.071-4.374-4.18-5.564l-58.661-33.077V82.381l105.638,59.567c1.3,0.733,2.767,1.118,4.258,1.118
	c0.059,0,0.119,0,0.177-0.001l66.305-1.357l-157.235,88.664l42.44-62.708C327.613,165.656,328.068,163.173,327.515,160.817z
	 M253.809,17.382l189.646,106.936l-66.693,1.365L187.116,18.747L253.809,17.382z M203.803,48.057l43.535,24.548V112.4
	l-78.822-44.446L203.803,48.057z M45.345,147.17l37.966,21.407c4.167,2.35,9.457,0.877,11.808-3.294
	c2.351-4.17,0.877-9.456-3.294-11.808l-42.692-24.073l53.327-78.796l204.167,115.125l-53.326,78.794l-131.755-74.293
	c-4.169-2.351-9.457-0.877-11.808,3.294c-2.351,4.17-0.877,9.456,3.294,11.808l134.307,75.732v227.427L45.346,374.607V147.17H45.345
	z"/>
<path d="M365.196,397.196c4.788,0,8.668-3.881,8.668-8.668V263.955l10.012,6.958c3.934,2.733,9.333,1.758,12.064-2.172
	c2.731-3.931,1.759-9.332-2.172-12.064l-23.626-16.418c-2.006-1.394-4.507-1.876-6.888-1.329c-2.381,0.548-4.419,2.073-5.616,4.203
	l-24.382,43.412c-2.344,4.174-0.861,9.458,3.312,11.802c1.343,0.755,2.799,1.112,4.237,1.112c3.031,0,5.975-1.594,7.565-4.425
	l8.157-14.522V388.53C356.528,393.316,360.409,397.196,365.196,397.196z"/>
</svg>