<svg fill="#000000" width="800px" height="800px" viewBox="0 0 24 24" id="iron"
  data-name="Flat Color" xmlns="http://www.w3.org/2000/svg" class="icon flat-color">

  <g id="SVGRepo_bgCarrier" stroke-width="0" />

  <g id="SVGRepo_tracerCarrier" stroke-linecap="round" stroke-linejoin="round" />

  <g id="SVGRepo_iconCarrier">

    <path id="secondary"
      d="M17,16H7a1,1,0,0,0-1,1v3a2,2,0,0,0,2,2h8a2,2,0,0,0,2-2V17A1,1,0,0,0,17,16Z"
      style="fill: #01b48a;" />

    <path id="primary"
      d="M12.55,1.17a1,1,0,0,0-1.1,0A14.43,14.43,0,0,0,5,13.21V17a1,1,0,0,0,1,1H18a1,1,0,0,0,1-1V13.21A14.43,14.43,0,0,0,12.55,1.17Z"
      style="fill: #000000;" />

  </g>

</svg>