<svg width="24" height="24" viewBox="0 0 24 24" fill="none" xmlns="http://www.w3.org/2000/svg">
  <path d="M21 6H3C2.44772 6 2 6.44772 2 7V17C2 17.5523 2.44772 18 3 18H21C21.5523 18 22 17.5523 22 17V7C22 6.44772 21.5523 6 21 6Z" stroke="currentColor" stroke-width="2" stroke-linecap="round" stroke-linejoin="round"/>
  <path d="M16 10H8C7.44772 10 7 10.4477 7 11V13C7 13.5523 7.44772 14 8 14H16C16.5523 14 17 13.5523 17 13V11C17 10.4477 16.5523 10 16 10Z" stroke="currentColor" stroke-width="2"/>
  <path d="M5 6V18" stroke="currentColor" stroke-width="2" stroke-linecap="round"/>
</svg> 