<?xml version="1.0" encoding="iso-8859-1"?>
<!-- Uploaded to: SVG Repo, www.svgrepo.com, Generator: SVG Repo Mixer Tools -->
<svg height="800px" width="800px" version="1.1" id="Layer_1" xmlns="http://www.w3.org/2000/svg" xmlns:xlink="http://www.w3.org/1999/xlink" 
	 viewBox="0 0 431.314 431.314" xml:space="preserve">
<g>
	<path style="fill:#73CDE5;" d="M331.587,431.314H96.557c0,0,16.29-145.59,40.5-159.61c7.76-4.51,16.34-7.76,25.45-9.48
		c4.91-0.93,9.99-1.42,15.17-1.42h72.79c5.18,0,10.26,0.49,15.17,1.42c9.12,1.72,17.69,4.97,25.45,9.47
		C315.297,285.724,331.587,431.314,331.587,431.314z"/>
	<path style="fill:#FFD3AE;" d="M137.057,271.704v159.61h-40.5v-89.39C96.557,311.924,112.847,285.724,137.057,271.704z"/>
	<path style="fill:#FFD3AE;" d="M331.587,341.924v89.39h-40.5v-159.62C315.297,285.724,331.587,311.924,331.587,341.924z"/>
	<path style="fill:#FFD3AE;" d="M257.64,238.133v29.77c0,12.02-4.87,22.92-12.76,30.8c-7.88,7.88-18.78,12.76-30.81,12.76
		c-24.06,0-43.56-19.5-43.56-43.56v-29.77L257.64,238.133L257.64,238.133z"/>
	<g>
		<g>
			<circle style="fill:#E5B591;" cx="133.501" cy="147.313" r="27.89"/>
			<circle style="fill:#E5B591;" cx="294.636" cy="147.313" r="27.89"/>
		</g>
	</g>
	<path style="fill:#E5B591;" d="M257.64,238.133v24.06c-12.86,7.29-27.73,11.45-43.57,11.45s-30.7-4.16-43.56-11.45v-24.06H257.64z"
		/>
	<path style="fill:#FFD3AE;" d="M263.429,243.283c-14.1,9.49-31.08,15.03-49.36,15.03s-35.26-5.54-49.36-15.03
		c-0.19-0.13-0.39-0.26-0.58-0.4c-23.28-15.94-38.56-42.72-38.56-73.07v-22.5v-51.5c0-48.877,27.279-64.589,76.156-64.589l4.5-4.5
		c48.877,0,96.344,20.211,96.344,69.088v51.5v22.5c0,30.35-15.28,57.13-38.56,73.07
		C263.819,243.023,263.619,243.154,263.429,243.283z"/>
	<g>
		<path style="fill:#E5B591;" d="M166.938,146.646h35.044c6.522,0,11.81,5.287,11.81,11.81v21.123c0,5.092,4.128,9.22,9.22,9.22
			h6.748l-2.943,1.044c-7.666,2.72-16.214,0.773-21.946-4.999L166.938,146.646z"/>
	</g>
	<g>
		<path style="fill:#333333;" d="M180.069,167.751c-1.58,0-3.13-0.64-4.24-1.75c-1.12-1.12-1.76-2.67-1.76-4.25s0.64-3.12,1.76-4.24
			c1.39-1.39,3.46-2.03,5.41-1.64c0.39,0.08,0.76,0.19,1.13,0.34c0.36,0.15,0.71,0.34,1.03,0.55c0.33,0.22,0.64,0.47,0.91,0.75
			c0.28,0.28,0.53,0.58,0.75,0.91s0.4,0.68,0.55,1.04c0.15,0.36,0.27,0.74,0.34,1.12c0.08,0.39,0.12,0.78,0.12,1.17
			s-0.04,0.79-0.12,1.18c-0.07,0.38-0.19,0.76-0.34,1.12s-0.33,0.71-0.55,1.03c-0.22,0.33-0.47,0.64-0.75,0.92
			C183.199,167.11,181.649,167.751,180.069,167.751z"/>
		<path style="fill:#333333;" d="M248.069,167.751c-0.39,0-0.79-0.04-1.17-0.11c-0.38-0.08-0.76-0.2-1.12-0.35
			c-0.37-0.15-0.71-0.33-1.04-0.55c-0.33-0.22-0.64-0.47-0.91-0.74c-0.28-0.28-0.53-0.59-0.75-0.92c-0.22-0.32-0.4-0.67-0.55-1.03
			c-0.15-0.36-0.27-0.74-0.34-1.12c-0.08-0.39-0.12-0.79-0.12-1.18s0.04-0.78,0.12-1.17c0.07-0.38,0.19-0.76,0.34-1.12
			s0.33-0.71,0.55-1.04c0.22-0.33,0.47-0.63,0.75-0.91c0.27-0.28,0.58-0.53,0.91-0.75c0.33-0.21,0.67-0.4,1.04-0.55
			c0.36-0.15,0.74-0.26,1.12-0.34c1.95-0.39,4.02,0.25,5.41,1.64c0.28,0.28,0.53,0.58,0.75,0.91s0.4,0.68,0.55,1.04
			c0.15,0.36,0.27,0.74,0.34,1.12c0.08,0.39,0.12,0.78,0.12,1.17s-0.04,0.79-0.12,1.18c-0.07,0.38-0.19,0.76-0.34,1.12
			s-0.33,0.71-0.55,1.03c-0.22,0.33-0.47,0.64-0.75,0.92C251.199,167.11,249.649,167.751,248.069,167.751z"/>
		<path style="fill:#333333;" d="M191.006,149.646h-21.875c-3.087,0-5.59-2.503-5.59-5.59l0,0c0-3.087,2.503-5.59,5.59-5.59h21.875
			c3.087,0,5.59,2.503,5.59,5.59l0,0C196.596,147.145,194.094,149.646,191.006,149.646z"/>
		<path style="fill:#333333;" d="M259.006,149.646h-21.875c-3.087,0-5.59-2.503-5.59-5.59l0,0c0-3.087,2.503-5.59,5.59-5.59h21.875
			c3.087,0,5.59,2.503,5.59,5.59l0,0C264.596,147.145,262.094,149.646,259.006,149.646z"/>
	</g>
	<path style="fill:#FFFFFF;" d="M239.3,201.311c0,2.98-0.52,5.83-1.48,8.49c-0.45,1.28-1.01,2.51-1.65,3.68
		c-4.3,7.78-12.58,13.05-22.1,13.05c-9.53,0-17.81-5.27-22.11-13.05c-0.65-1.17-1.21-2.4-1.66-3.68c-0.96-2.66-1.47-5.51-1.47-8.49
		H239.3z"/>
	<path style="fill:#333333;" d="M237.82,209.8c-0.45,1.28-1.01,2.51-1.65,3.68c-4.3,7.78-12.58,13.05-22.1,13.05
		c-9.53,0-17.81-5.27-22.11-13.05c-0.65-1.17-1.21-2.4-1.66-3.68H237.82z"/>
	<polygon style="fill:#E5B591;" points="301.078,120.984 125.569,133.316 125.569,107.317 	"/>
	<path style="fill:#73CDE5;" d="M301.078,120.984H127.06c-2.894,0-5.241-2.346-5.241-5.241V90.225c0-2.894,2.346-5.241,5.241-5.241
		h174.018c2.894,0,5.241,2.346,5.241,5.241v25.518C306.319,118.637,303.972,120.984,301.078,120.984z"/>
	<path style="fill:#666666;" d="M226.757,84.984c0,0-25.5,17.5-84.5,16.5c-25.813-0.438-27.519-13.736-26.619-30.992
		c3.689-70.707,107.314-88.965,142.56-51.407c0,0,47.202,11.899,42.881,65.899C301.079,84.984,226.757,84.984,226.757,84.984z"/>
	<path style="fill:#43B0C9;" d="M329.285,371.484h-38.198v30.5h38.198c3.022,0,5.472-2.45,5.472-5.472v-19.557
		C334.757,373.934,332.307,371.484,329.285,371.484z"/>
</g>
</svg>