<?xml version="1.0" encoding="iso-8859-1"?>
<!-- Uploaded to: SVG Repo, www.svgrepo.com, Generator: SVG Repo Mixer Tools -->
<svg height="800px" width="800px" version="1.1" id="Layer_1" xmlns="http://www.w3.org/2000/svg" xmlns:xlink="http://www.w3.org/1999/xlink" 
	 viewBox="0 0 512.001 512.001" xml:space="preserve">
<path style="fill:#0778B8;" d="M156.2,254.004H94.281c-9.221,0-16.696-7.475-16.696-16.696v-51.599
	c0-9.221,7.475-16.696,16.696-16.696H156.2c9.221,0,16.696,7.475,16.696,16.696v51.599
	C172.896,246.529,165.42,254.004,156.2,254.004z"/>
<path style="fill:#A2D5F2;" d="M421.117,512.001H90.882c-31.968,0-57.976-26.007-57.976-57.976V278.588
	c0-31.969,26.008-57.976,57.976-57.976h89.511l7.635-38.177c1.561-7.805,8.414-13.423,16.372-13.423h103.199
	c7.958,0,14.812,5.618,16.372,13.423l7.635,38.177h89.511c31.969,0,57.976,26.007,57.976,57.976v175.437
	C479.093,485.994,453.086,512.001,421.117,512.001z"/>
<g>
	<path style="fill:#0778B8;" d="M421.117,220.612h-89.511l-7.635-38.177c-1.561-7.805-8.414-13.423-16.372-13.423H256v342.988
		h165.118c31.969,0,57.976-26.007,57.976-57.976V278.588C479.093,246.619,453.086,220.612,421.117,220.612z"/>
	<path style="fill:#0778B8;" d="M256,475.881c-60.42,0-109.574-49.155-109.574-109.574S195.581,256.732,256,256.732
		c60.42,0,109.574,49.155,109.574,109.574S316.42,475.881,256,475.881z"/>
</g>
<path style="fill:#224F9C;" d="M256,256.731v219.15c60.42,0,109.574-49.155,109.574-109.574S316.42,256.731,256,256.731z"/>
<path style="fill:#D7FBE8;" d="M256,424.282c-31.968,0-57.976-26.007-57.976-57.976s26.008-57.976,57.976-57.976
	c31.969,0,57.976,26.007,57.976,57.976S287.968,424.282,256,424.282z"/>
<g>
	<path style="fill:#0778B8;" d="M303.596,41.974c-0.065-0.096-0.128-0.194-0.19-0.292c-7.116-11.075-26.426-11.064-33.534-0.001
		c-20.146,31.359-69.131,31.562-89.53,0.293c-0.065-0.097-0.128-0.193-0.191-0.291c-3.334-5.191-9.601-8.29-16.765-8.29
		c-7.165-0.001-13.433,3.098-16.767,8.289c-20.226,31.48-69.46,31.538-89.722-0.004c-4.984-7.758-2.735-18.087,5.024-23.071
		c7.758-4.987,18.087-2.735,23.072,5.024c7.101,11.054,26.426,11.062,33.532,0c9.506-14.796,26.276-23.631,44.859-23.631
		c0.001,0,0.001,0,0.002,0c18.457,0,35.125,8.716,44.664,23.335c0.066,0.098,0.131,0.197,0.195,0.297
		c7.101,11.054,26.426,11.062,33.533,0c20.147-31.36,69.132-31.559,89.531-0.292c0.065,0.096,0.128,0.194,0.19,0.292
		c7.103,11.054,26.427,11.062,33.534,0c20.227-31.479,69.46-31.539,89.721,0.004c4.984,7.758,2.735,18.087-5.024,23.071
		c-7.754,4.985-18.086,2.736-23.071-5.024c-7.113-11.07-26.422-11.068-33.533,0C372.98,73.041,323.997,73.242,303.596,41.974z"/>
	<path style="fill:#0778B8;" d="M303.62,115.602c-0.072-0.108-0.144-0.215-0.214-0.325c-7.113-11.074-26.424-11.066-33.533-0.002
		c-20.169,31.394-69.124,31.514-89.508,0.326c-0.072-0.107-0.144-0.214-0.214-0.324c-3.335-5.19-9.601-8.29-16.766-8.29
		c-7.165,0-13.433,3.098-16.767,8.289c-20.226,31.48-69.46,31.538-89.722-0.004c-4.984-7.758-2.735-18.087,5.024-23.071
		c7.758-4.988,18.087-2.735,23.072,5.024c7.114,11.074,26.423,11.065,33.532,0c9.507-14.797,26.277-23.631,44.86-23.631
		c0.001,0,0.001,0,0.002,0c18.444,0.001,35.102,8.705,44.644,23.306c0.072,0.107,0.144,0.216,0.215,0.326
		c7.115,11.074,26.424,11.065,33.533,0c20.171-31.396,69.125-31.511,89.509-0.324c0.071,0.108,0.142,0.214,0.211,0.324
		c7.11,11.067,26.422,11.071,33.534,0c20.228-31.48,69.459-31.538,89.722,0.006c4.983,7.758,2.734,18.087-5.026,23.072
		c-7.757,4.983-18.086,2.736-23.072-5.026c-7.113-11.073-26.422-11.067-33.531-0.001C372.957,146.67,324.005,146.79,303.62,115.602z
		"/>
</g>
<g>
	<path style="fill:#224F9C;" d="M454.755,23.636c-20.26-31.543-69.494-31.483-89.72-0.004c-7.107,11.062-26.431,11.054-33.534,0
		c-0.062-0.098-0.126-0.196-0.19-0.292C314.788-1.985,279.516-6.66,256,9.139v46.805c5.375-3.675,10.125-8.428,13.873-14.263
		c7.108-11.063,26.418-11.074,33.534,0.001c0.062,0.098,0.126,0.196,0.19,0.292c20.399,31.268,69.382,31.067,89.532-0.292
		c7.11-11.068,26.42-11.07,33.533,0c4.984,7.76,15.317,10.01,23.071,5.024C457.49,41.723,459.74,31.394,454.755,23.636z"/>
	<path style="fill:#224F9C;" d="M454.756,97.232c-20.262-31.543-69.495-31.486-89.722-0.006c-7.111,11.071-26.423,11.067-33.534,0
		c-0.07-0.11-0.14-0.216-0.211-0.324C314.778,71.639,279.522,66.922,256,82.729v46.814c5.373-3.675,10.122-8.428,13.873-14.266
		c7.108-11.063,26.42-11.072,33.532,0.002c0.07,0.11,0.141,0.217,0.214,0.325c20.385,31.187,69.337,31.067,89.509-0.326
		c7.109-11.066,26.419-11.073,33.531,0.001c4.985,7.761,15.315,10.008,23.072,5.026C457.49,115.32,459.74,104.989,454.756,97.232z"
		/>
</g>
<path style="fill:#9DF3C4;" d="M256,308.331v115.951c31.969,0,57.976-26.007,57.976-57.976S287.968,308.331,256,308.331z"/>
<path style="fill:#224F9C;" d="M410.798,305.604h-23.556c-9.221,0-16.696-7.475-16.696-16.696s7.475-16.696,16.696-16.696h23.556
	c9.221,0,16.696,7.475,16.696,16.696S420.019,305.604,410.798,305.604z"/>
</svg>