<?xml version="1.0" encoding="utf-8"?><!-- Uploaded to: SVG Repo, www.svgrepo.com, Generator: SVG Repo Mixer Tools -->
<svg fill="#000000" width="800px" height="800px" viewBox="0 0 24 24" id="pilates-ball" data-name="Flat Color" xmlns="http://www.w3.org/2000/svg" class="icon flat-color"><path id="primary" d="M12,5a9,9,0,0,0-9,9,1,1,0,0,0,1,1H20a1,1,0,0,0,1-1A9,9,0,0,0,12,5Z" style="fill: rgb(0, 0, 0);"></path><path id="secondary" d="M20,14H4a2,2,0,0,0-2,2v2a1,1,0,0,0,1,1H21a1,1,0,0,0,1-1V16A2,2,0,0,0,20,14Z" style="fill: rgb(44, 169, 188);"></path></svg>